<svg width="1325" height="1352" viewBox="0 0 1325 1352" fill="none" xmlns="http://www.w3.org/2000/svg">
<path fill-rule="evenodd" clip-rule="evenodd" d="M1082.28 246.844L663.118 493.688V0L1082.28 246.844ZM484.007 675.246L242.004 247.7L0 675.246H484.007ZM0.104867 676.365L242.277 1103.81L484.112 676.166L0.104867 676.365ZM1082.28 1104.5L663.118 1351.35V857.66L1082.28 1104.5ZM662.021 857.767L242.956 1104.78L662.216 1351.45L662.021 857.767ZM662.021 0.106937L242.956 247.123L662.216 493.794L662.021 0.106937ZM1082.85 247.7L1324.85 675.246H840.843L1082.85 247.7ZM840.948 676.365L1083.12 1103.81L1324.95 676.166L840.948 676.365Z" fill="url(#paint0_linear_4_18)"/>
<defs>
<linearGradient id="paint0_linear_4_18" x1="823.311" y1="25.813" x2="825.925" y2="1436.81" gradientUnits="userSpaceOnUse">
<stop stop-color="#4CA6DD"/>
<stop offset="0.76536" stop-color="#9B6DB8"/>
</linearGradient>
</defs>
</svg>
